<?xml version="1.0" encoding="iso-8859-1"?>
<!-- Generator: Adobe Illustrator 19.0.0, SVG Export Plug-In . SVG Version: 6.00 Build 0)  -->
<svg version="1.1" id="Layer_1" xmlns="http://www.w3.org/2000/svg" xmlns:xlink="http://www.w3.org/1999/xlink" x="0px" y="0px"
	 viewBox="0 0 512 512" style="enable-background:new 0 0 512 512;" xml:space="preserve">
<g>
	<g>
		<path d="M427.507,7.414c-3.716-4.144-10.091-4.491-14.233-0.776c-4.146,3.717-4.493,10.089-0.778,14.234
			c74.99,83.641,97.742,181.244,64.065,274.828c-34.967,97.167-126.892,175.167-223.548,189.68
			c-71.818,10.784-135.57-15.541-179.507-74.122C7.345,323.046,14.407,255.97,31.981,215.234
			c22.572-52.325,76.41-90.578,137.158-97.455c53.304-6.037,100.712,13.47,130.073,53.511c38.39,52.35,31.421,91.981,18.815,116.009
			c-17.897,34.113-58.27,57.173-98.21,56.022c-17.368-0.491-48.85-6.478-64.567-41.055c-11.93-26.246-11.728-48.672,0.583-64.852
			c14.169-18.619,44.177-28.438,72.99-23.887c20.028,3.166,34.157,12.529,38.766,25.689c5.406,15.436,5.291,28.148-0.347,37.784
			c-8.091,13.831-25.599,18.449-29.543,19.333c-5.916-0.265-31.15-2.988-31.15-30.211c0-4.938,0.773-11.313,4.456-13.648
			c5.704-3.622,18.104,0.173,23.229,2.586c5.022,2.396,11.034,0.276,13.433-4.744c2.404-5.021,0.283-11.039-4.737-13.443
			c-2.613-1.251-26.034-11.933-42.654-1.465c-6.334,3.99-13.886,12.558-13.886,30.715c0,39.862,34.138,50.395,52.187,50.395
			c0.561,0,1.125-0.047,1.678-0.14c1.23-0.208,30.316-5.363,44.283-29.023c8.859-15.004,9.557-33.442,2.077-54.801
			c-7.141-20.383-27.058-34.574-54.645-38.936c-30.277-4.79-70.517,3.128-92.178,31.591c-11.912,15.655-22.085,43.181-2.894,85.402
			c14.789,32.533,44.802,51.802,82.348,52.864c1.107,0.031,2.215,0.047,3.32,0.047c46.242-0.001,92.474-27.132,113.313-66.854
			c21.588-41.149,14.339-89.908-20.412-137.294c-33.756-46.031-87.919-68.502-148.595-61.621
			c-67.803,7.676-128.016,50.657-153.401,109.5C-14.356,271.751,1.237,348.5,57.378,423.354
			c41.461,55.28,98.891,84.583,164.235,84.582c11.243,0,22.725-0.869,34.393-2.621c103.66-15.564,202.155-98.955,239.521-202.79
			C531.833,201.64,507.674,96.834,427.507,7.414z"/>
	</g>
</g>
<g>
</g>
<g>
</g>
<g>
</g>
<g>
</g>
<g>
</g>
<g>
</g>
<g>
</g>
<g>
</g>
<g>
</g>
<g>
</g>
<g>
</g>
<g>
</g>
<g>
</g>
<g>
</g>
<g>
</g>
</svg>
